# xmcd
#
# Track frame offsets:
#	183
#	16175
#	33753
#	50783
#	67710
#	81265
#	100008
#	130085
#	147783
#	162433
#	182995
#	199083
#
# Disc length: 2869 seconds
#
# Revision: 4
# Processed by: cddbd v1.5.2PL0 Copyright (c) Steve Scherf et al.
# Submitted via: audiograbber 1.83.01
#
DISCID=990b330c
DTITLE=Roy Black - Schwarz auf Weiss
DYEAR=1988
DGENRE=Schlager
TTITLE0=Only The Lonely
TTITLE1=Hotel der einsamen Herzen
TTITLE2=Kein Morgen danach
TTITLE3=Ginny, dein Lächeln
TTITLE4=Wenn es Liebe wär'
TTITLE5=Bleib doch heute Abend einfach hier
TTITLE6=Bella Marie (Medley)
TTITLE7=Rosen ohne Dornen
TTITLE8=Asphaltblumen sterben jung
TTITLE9=Manchmal braucht der Mensch einfach mehr
TTITLE10=Da bist Du
TTITLE11=C´est la vie
EXTD=YEAR: 1988
EXTT0=
EXTT1=
EXTT2=
EXTT3=
EXTT4=
EXTT5=
EXTT6=
EXTT7=
EXTT8=
EXTT9=
EXTT10=
EXTT11=
PLAYORDER=
